<svg width="32" height="32" viewBox="0 0 32 32" fill="none" xmlns="http://www.w3.org/2000/svg">
  <!-- Legal scales background -->
  <rect width="32" height="32" rx="6" fill="#1e40af"/>
  
  <!-- Scales of justice -->
  <g transform="translate(6, 4)">
    <!-- Central pole -->
    <rect x="9.5" y="2" width="1" height="16" fill="#ffffff"/>
    
    <!-- Top beam -->
    <rect x="4" y="2" width="12" height="1" fill="#ffffff"/>
    
    <!-- Left scale -->
    <ellipse cx="6" cy="8" rx="3" ry="1.5" fill="none" stroke="#ffffff" stroke-width="0.8"/>
    <line x1="3" y1="6" x2="9" y2="6" stroke="#ffffff" stroke-width="0.8"/>
    <line x1="3" y1="6" x2="3" y2="8" stroke="#ffffff" stroke-width="0.8"/>
    <line x1="9" y1="6" x2="9" y2="8" stroke="#ffffff" stroke-width="0.8"/>
    
    <!-- Right scale -->
    <ellipse cx="14" cy="8" rx="3" ry="1.5" fill="none" stroke="#ffffff" stroke-width="0.8"/>
    <line x1="11" y1="6" x2="17" y2="6" stroke="#ffffff" stroke-width="0.8"/>
    <line x1="11" y1="6" x2="11" y2="8" stroke="#ffffff" stroke-width="0.8"/>
    <line x1="17" y1="6" x2="17" y2="8" stroke="#ffffff" stroke-width="0.8"/>
    
    <!-- AI circuit pattern overlay -->
    <circle cx="6" cy="14" r="1" fill="#60a5fa" opacity="0.8"/>
    <circle cx="14" cy="14" r="1" fill="#60a5fa" opacity="0.8"/>
    <line x1="6" y1="14" x2="14" y2="14" stroke="#60a5fa" stroke-width="0.5" opacity="0.6"/>
    
    <!-- Base -->
    <rect x="7" y="18" width="6" height="2" rx="1" fill="#ffffff"/>
  </g>
  
  <!-- AI indicator dot -->
  <circle cx="26" cy="8" r="3" fill="#10b981"/>
  <circle cx="26" cy="8" r="1.5" fill="#ffffff"/>
</svg>